<?xml version="1.0" ?><svg height="12px" version="1.1" viewBox="0 0 20 12" width="20px" xmlns="http://www.w3.org/2000/svg" xmlns:sketch="http://www.bohemiancoding.com/sketch/ns" xmlns:xlink="http://www.w3.org/1999/xlink"><title/><desc/><defs/><g fill="none" fill-rule="evenodd" id="Page-1" stroke="none" stroke-width="1"><g fill="#000000" id="Core" transform="translate(-380.000000, -300.000000)"><g id="link" transform="translate(380.000000, 300.000000)"><path d="M6,7 L14,7 L14,5 L6,5 L6,7 L6,7 Z M1.9,6 C1.9,3.7 3.7,1.9 6,1.9 L9,1.9 L9,0 L6,0 C2.7,0 0,2.7 0,6 C0,9.3 2.7,12 6,12 L9,12 L9,10.1 L6,10.1 C3.7,10.1 1.9,8.3 1.9,6 L1.9,6 Z M14,0 L11,0 L11,1.9 L14,1.9 C16.3,1.9 18.1,3.7 18.1,6 C18.1,8.3 16.3,10.1 14,10.1 L11,10.1 L11,12 L14,12 C17.3,12 20,9.3 20,6 C20,2.7 17.3,0 14,0 L14,0 Z" id="Shape"/></g></g></g></svg>